<mxfile host="www.draw.io" modified="2019-10-22T06:53:13.553Z" agent="Mozilla/5.0 (Macintosh; Intel Mac OS X 10_13_6) AppleWebKit/537.36 (KHTML, like Gecko) Chrome/77.0.3865.90 Safari/537.36" etag="0mdbTOTEq6W60OsePuBD" version="12.1.3" type="github" pages="1">
  <diagram id="BOEk1lN_Ds9qcJwE51JH" name="Page-1">
    <mxGraphModel dx="2207" dy="1942" grid="1" gridSize="10" guides="1" tooltips="1" connect="1" arrows="1" fold="1" page="1" pageScale="1" pageWidth="827" pageHeight="1169" math="0" shadow="0">
      <root>
        <mxCell id="0"/>
        <mxCell id="1" parent="0"/>
        <mxCell id="hH2Sw-R2dPevOKpQbH9V-58" value="" style="rounded=0;whiteSpace=wrap;html=1;" vertex="1" parent="1">
          <mxGeometry x="160" y="340" width="330" height="320" as="geometry"/>
        </mxCell>
        <mxCell id="hH2Sw-R2dPevOKpQbH9V-43" value="" style="rounded=0;whiteSpace=wrap;html=1;fillColor=#E6D0DE;" vertex="1" parent="1">
          <mxGeometry x="527.5" y="75" width="185" height="255" as="geometry"/>
        </mxCell>
        <mxCell id="hH2Sw-R2dPevOKpQbH9V-37" value="" style="rounded=0;whiteSpace=wrap;html=1;" vertex="1" parent="1">
          <mxGeometry x="-260" y="260" width="380" height="240" as="geometry"/>
        </mxCell>
        <mxCell id="hH2Sw-R2dPevOKpQbH9V-22" value="" style="rounded=0;whiteSpace=wrap;html=1;" vertex="1" parent="1">
          <mxGeometry x="530" y="365" width="200" height="300" as="geometry"/>
        </mxCell>
        <mxCell id="hH2Sw-R2dPevOKpQbH9V-1" value="tlb" style="rounded=0;whiteSpace=wrap;html=1;" vertex="1" parent="1">
          <mxGeometry x="200" y="120" width="280" height="40" as="geometry"/>
        </mxCell>
        <mxCell id="hH2Sw-R2dPevOKpQbH9V-2" value="eelb" style="rounded=0;whiteSpace=wrap;html=1;" vertex="1" parent="1">
          <mxGeometry x="200" y="190" width="280" height="40" as="geometry"/>
        </mxCell>
        <mxCell id="hH2Sw-R2dPevOKpQbH9V-3" value="streamapi" style="rounded=0;whiteSpace=wrap;html=1;" vertex="1" parent="1">
          <mxGeometry x="200" y="260" width="120" height="40" as="geometry"/>
        </mxCell>
        <mxCell id="hH2Sw-R2dPevOKpQbH9V-4" value="动态cdn" style="rounded=0;whiteSpace=wrap;html=1;" vertex="1" parent="1">
          <mxGeometry x="200" y="50" width="280" height="40" as="geometry"/>
        </mxCell>
        <mxCell id="hH2Sw-R2dPevOKpQbH9V-5" value="web/client" style="rounded=0;whiteSpace=wrap;html=1;" vertex="1" parent="1">
          <mxGeometry x="200" y="-20" width="280" height="40" as="geometry"/>
        </mxCell>
        <mxCell id="hH2Sw-R2dPevOKpQbH9V-6" value="api" style="rounded=0;whiteSpace=wrap;html=1;" vertex="1" parent="1">
          <mxGeometry x="360" y="260" width="120" height="40" as="geometry"/>
        </mxCell>
        <mxCell id="hH2Sw-R2dPevOKpQbH9V-8" value="file_rpc" style="rounded=0;whiteSpace=wrap;html=1;" vertex="1" parent="1">
          <mxGeometry x="340" y="355" width="120" height="40" as="geometry"/>
        </mxCell>
        <mxCell id="hH2Sw-R2dPevOKpQbH9V-9" value="fileinfo" style="rounded=0;whiteSpace=wrap;html=1;" vertex="1" parent="1">
          <mxGeometry x="250" y="415" width="60" height="40" as="geometry"/>
        </mxCell>
        <mxCell id="hH2Sw-R2dPevOKpQbH9V-10" value="block" style="rounded=0;whiteSpace=wrap;html=1;" vertex="1" parent="1">
          <mxGeometry x="340" y="415" width="60" height="40" as="geometry"/>
        </mxCell>
        <mxCell id="hH2Sw-R2dPevOKpQbH9V-11" value="cipher" style="rounded=0;whiteSpace=wrap;html=1;" vertex="1" parent="1">
          <mxGeometry x="420" y="415" width="60" height="40" as="geometry"/>
        </mxCell>
        <mxCell id="hH2Sw-R2dPevOKpQbH9V-12" value="cache" style="rounded=0;whiteSpace=wrap;html=1;" vertex="1" parent="1">
          <mxGeometry x="360" y="540" width="120" height="40" as="geometry"/>
        </mxCell>
        <mxCell id="hH2Sw-R2dPevOKpQbH9V-13" value="db" style="rounded=0;whiteSpace=wrap;html=1;" vertex="1" parent="1">
          <mxGeometry x="360" y="600" width="120" height="40" as="geometry"/>
        </mxCell>
        <mxCell id="hH2Sw-R2dPevOKpQbH9V-14" value="Integration" style="rounded=0;whiteSpace=wrap;html=1;" vertex="1" parent="1">
          <mxGeometry x="540" y="485" width="80" height="40" as="geometry"/>
        </mxCell>
        <mxCell id="hH2Sw-R2dPevOKpQbH9V-15" value="接入业务1" style="rounded=0;whiteSpace=wrap;html=1;" vertex="1" parent="1">
          <mxGeometry x="639" y="385" width="80" height="40" as="geometry"/>
        </mxCell>
        <mxCell id="hH2Sw-R2dPevOKpQbH9V-16" value="接入业务2" style="rounded=0;whiteSpace=wrap;html=1;" vertex="1" parent="1">
          <mxGeometry x="639" y="455" width="80" height="40" as="geometry"/>
        </mxCell>
        <mxCell id="hH2Sw-R2dPevOKpQbH9V-17" value="接入业务n" style="rounded=0;whiteSpace=wrap;html=1;" vertex="1" parent="1">
          <mxGeometry x="639" y="595" width="80" height="40" as="geometry"/>
        </mxCell>
        <mxCell id="hH2Sw-R2dPevOKpQbH9V-19" value="resource" style="rounded=0;whiteSpace=wrap;html=1;" vertex="1" parent="1">
          <mxGeometry x="170" y="415" width="60" height="40" as="geometry"/>
        </mxCell>
        <mxCell id="hH2Sw-R2dPevOKpQbH9V-20" value="bytegraph" style="rounded=0;whiteSpace=wrap;html=1;" vertex="1" parent="1">
          <mxGeometry x="190" y="540" width="60" height="40" as="geometry"/>
        </mxCell>
        <mxCell id="hH2Sw-R2dPevOKpQbH9V-21" value="tos" style="rounded=0;whiteSpace=wrap;html=1;" vertex="1" parent="1">
          <mxGeometry x="270" y="540" width="60" height="40" as="geometry"/>
        </mxCell>
        <mxCell id="hH2Sw-R2dPevOKpQbH9V-23" value="mq-kafka" style="rounded=0;whiteSpace=wrap;html=1;" vertex="1" parent="1">
          <mxGeometry x="270" y="600" width="60" height="40" as="geometry"/>
        </mxCell>
        <mxCell id="hH2Sw-R2dPevOKpQbH9V-24" value="qiyana" style="rounded=0;whiteSpace=wrap;html=1;" vertex="1" parent="1">
          <mxGeometry x="-160" y="400" width="80" height="40" as="geometry"/>
        </mxCell>
        <mxCell id="hH2Sw-R2dPevOKpQbH9V-25" value="preview" style="rounded=0;whiteSpace=wrap;html=1;" vertex="1" parent="1">
          <mxGeometry x="-120" y="280" width="120" height="40" as="geometry"/>
        </mxCell>
        <mxCell id="hH2Sw-R2dPevOKpQbH9V-27" value="content" style="rounded=0;whiteSpace=wrap;html=1;" vertex="1" parent="1">
          <mxGeometry x="-55" y="400" width="70" height="40" as="geometry"/>
        </mxCell>
        <mxCell id="hH2Sw-R2dPevOKpQbH9V-28" value="image_parser" style="rounded=0;whiteSpace=wrap;html=1;" vertex="1" parent="1">
          <mxGeometry x="30" y="340" width="80" height="40" as="geometry"/>
        </mxCell>
        <mxCell id="hH2Sw-R2dPevOKpQbH9V-29" value="design_parser" style="rounded=0;whiteSpace=wrap;html=1;" vertex="1" parent="1">
          <mxGeometry x="-160" y="340" width="90" height="40" as="geometry"/>
        </mxCell>
        <mxCell id="hH2Sw-R2dPevOKpQbH9V-30" value="video_parser" style="rounded=0;whiteSpace=wrap;html=1;" vertex="1" parent="1">
          <mxGeometry x="-60" y="340" width="80" height="40" as="geometry"/>
        </mxCell>
        <mxCell id="hH2Sw-R2dPevOKpQbH9V-31" value="office_parser" style="rounded=0;whiteSpace=wrap;html=1;" vertex="1" parent="1">
          <mxGeometry x="-250" y="340" width="80" height="40" as="geometry"/>
        </mxCell>
        <mxCell id="hH2Sw-R2dPevOKpQbH9V-32" value="oos" style="rounded=0;whiteSpace=wrap;html=1;" vertex="1" parent="1">
          <mxGeometry x="-130" y="450" width="80" height="40" as="geometry"/>
        </mxCell>
        <mxCell id="hH2Sw-R2dPevOKpQbH9V-34" value="视频转码" style="rounded=0;whiteSpace=wrap;html=1;" vertex="1" parent="1">
          <mxGeometry x="190" y="600" width="60" height="40" as="geometry"/>
        </mxCell>
        <mxCell id="hH2Sw-R2dPevOKpQbH9V-35" value="credencial" style="rounded=0;whiteSpace=wrap;html=1;" vertex="1" parent="1">
          <mxGeometry x="420" y="475" width="60" height="40" as="geometry"/>
        </mxCell>
        <mxCell id="hH2Sw-R2dPevOKpQbH9V-36" value="cover" style="rounded=0;whiteSpace=wrap;html=1;" vertex="1" parent="1">
          <mxGeometry x="340" y="475" width="60" height="40" as="geometry"/>
        </mxCell>
        <mxCell id="hH2Sw-R2dPevOKpQbH9V-38" value="预览子系统" style="rounded=0;whiteSpace=wrap;html=1;" vertex="1" parent="1">
          <mxGeometry x="-260" y="230" width="80" height="30" as="geometry"/>
        </mxCell>
        <mxCell id="hH2Sw-R2dPevOKpQbH9V-40" value="e2e测试-移动端/android,ios" style="rounded=0;whiteSpace=wrap;html=1;fillColor=#E6D0DE;" vertex="1" parent="1">
          <mxGeometry x="535.5" y="95" width="170" height="40" as="geometry"/>
        </mxCell>
        <mxCell id="hH2Sw-R2dPevOKpQbH9V-41" value="e2e测试-web" style="rounded=0;whiteSpace=wrap;html=1;fillColor=#E6D0DE;" vertex="1" parent="1">
          <mxGeometry x="535.5" y="155" width="170" height="40" as="geometry"/>
        </mxCell>
        <mxCell id="hH2Sw-R2dPevOKpQbH9V-42" value="e2e测试-client" style="rounded=0;whiteSpace=wrap;html=1;fillColor=#E6D0DE;" vertex="1" parent="1">
          <mxGeometry x="534.5" y="218" width="170" height="40" as="geometry"/>
        </mxCell>
        <mxCell id="hH2Sw-R2dPevOKpQbH9V-44" value="测试构建" style="rounded=0;whiteSpace=wrap;html=1;fillColor=#E6D0DE;" vertex="1" parent="1">
          <mxGeometry x="527.5" y="45" width="95" height="30" as="geometry"/>
        </mxCell>
        <mxCell id="hH2Sw-R2dPevOKpQbH9V-45" value="后端集成测试" style="rounded=0;whiteSpace=wrap;html=1;fillColor=#E6D0DE;" vertex="1" parent="1">
          <mxGeometry x="537.5" y="275" width="170" height="40" as="geometry"/>
        </mxCell>
        <mxCell id="hH2Sw-R2dPevOKpQbH9V-46" value="" style="endArrow=classic;html=1;exitX=1;exitY=0.5;exitDx=0;exitDy=0;entryX=0;entryY=0.5;entryDx=0;entryDy=0;" edge="1" parent="1" source="hH2Sw-R2dPevOKpQbH9V-14" target="hH2Sw-R2dPevOKpQbH9V-15">
          <mxGeometry width="50" height="50" relative="1" as="geometry">
            <mxPoint x="770" y="665" as="sourcePoint"/>
            <mxPoint x="820" y="615" as="targetPoint"/>
          </mxGeometry>
        </mxCell>
        <mxCell id="hH2Sw-R2dPevOKpQbH9V-47" value="" style="endArrow=classic;html=1;exitX=1;exitY=0.5;exitDx=0;exitDy=0;entryX=0;entryY=0.5;entryDx=0;entryDy=0;" edge="1" parent="1" source="hH2Sw-R2dPevOKpQbH9V-14" target="hH2Sw-R2dPevOKpQbH9V-16">
          <mxGeometry width="50" height="50" relative="1" as="geometry">
            <mxPoint x="890" y="685" as="sourcePoint"/>
            <mxPoint x="940" y="635" as="targetPoint"/>
          </mxGeometry>
        </mxCell>
        <mxCell id="hH2Sw-R2dPevOKpQbH9V-48" value="" style="endArrow=classic;html=1;entryX=0;entryY=0.5;entryDx=0;entryDy=0;" edge="1" parent="1" target="hH2Sw-R2dPevOKpQbH9V-17">
          <mxGeometry width="50" height="50" relative="1" as="geometry">
            <mxPoint x="620" y="505" as="sourcePoint"/>
            <mxPoint x="860" y="605" as="targetPoint"/>
          </mxGeometry>
        </mxCell>
        <mxCell id="hH2Sw-R2dPevOKpQbH9V-50" value="" style="endArrow=classic;html=1;exitX=0.5;exitY=1;exitDx=0;exitDy=0;entryX=0.5;entryY=0;entryDx=0;entryDy=0;" edge="1" parent="1" source="hH2Sw-R2dPevOKpQbH9V-5" target="hH2Sw-R2dPevOKpQbH9V-4">
          <mxGeometry width="50" height="50" relative="1" as="geometry">
            <mxPoint x="600" y="90" as="sourcePoint"/>
            <mxPoint x="650" y="40" as="targetPoint"/>
          </mxGeometry>
        </mxCell>
        <mxCell id="hH2Sw-R2dPevOKpQbH9V-51" value="" style="endArrow=classic;html=1;exitX=0.5;exitY=1;exitDx=0;exitDy=0;entryX=0.5;entryY=0;entryDx=0;entryDy=0;" edge="1" parent="1">
          <mxGeometry width="50" height="50" relative="1" as="geometry">
            <mxPoint x="339" y="90" as="sourcePoint"/>
            <mxPoint x="339" y="120" as="targetPoint"/>
          </mxGeometry>
        </mxCell>
        <mxCell id="hH2Sw-R2dPevOKpQbH9V-52" value="" style="endArrow=classic;html=1;exitX=0.5;exitY=1;exitDx=0;exitDy=0;entryX=0.5;entryY=0;entryDx=0;entryDy=0;" edge="1" parent="1">
          <mxGeometry width="50" height="50" relative="1" as="geometry">
            <mxPoint x="339" y="160" as="sourcePoint"/>
            <mxPoint x="339" y="190" as="targetPoint"/>
          </mxGeometry>
        </mxCell>
        <mxCell id="hH2Sw-R2dPevOKpQbH9V-53" value="" style="endArrow=classic;html=1;exitX=0.5;exitY=1;exitDx=0;exitDy=0;entryX=0.5;entryY=0;entryDx=0;entryDy=0;" edge="1" parent="1" target="hH2Sw-R2dPevOKpQbH9V-3">
          <mxGeometry width="50" height="50" relative="1" as="geometry">
            <mxPoint x="339.5" y="232.5" as="sourcePoint"/>
            <mxPoint x="339.5" y="262.5" as="targetPoint"/>
          </mxGeometry>
        </mxCell>
        <mxCell id="hH2Sw-R2dPevOKpQbH9V-54" value="" style="endArrow=classic;html=1;entryX=0.5;entryY=0;entryDx=0;entryDy=0;" edge="1" parent="1" target="hH2Sw-R2dPevOKpQbH9V-6">
          <mxGeometry width="50" height="50" relative="1" as="geometry">
            <mxPoint x="340" y="230" as="sourcePoint"/>
            <mxPoint x="270" y="270" as="targetPoint"/>
          </mxGeometry>
        </mxCell>
        <mxCell id="hH2Sw-R2dPevOKpQbH9V-59" value="service" style="rounded=0;whiteSpace=wrap;html=1;" vertex="1" parent="1">
          <mxGeometry x="160" y="320" width="80" height="20" as="geometry"/>
        </mxCell>
      </root>
    </mxGraphModel>
  </diagram>
</mxfile>
